PathFileType	4	(X/Y/Z)	/Users/itak/Documents/Research/Walk-IL/dataset/trc/00110_00007.trc
DataRate	CameraRate	NumFrames	NumMarkers	Units	OrigDataRate	OrigDataStartFrame	OrigNumFrames
100.000000	100.000000	4	53	mm	100.000000	0	594
Frame#	Time	RPSI			LPSI			L3			STRN			T10			C7			CLAV			RBAK			LBAK			LSHO			LUPA			LAEL			LAOL			LWTS			LWPS			LFRA			LIFD			LHPS			LHTS			RSHO			RUPA			RAEL			RAOL			RWTS			RWPS			RFRA			RIFD			RHTS			RHPS			RBHD			LFHD			RFHD			LBHD			LHIP			RHIP			RASI			LASI			LKNE			LTHI			LANK			LTIP			LTOE			LMT1			LMT5			LHEE			RKNE			RTHI			RANK			RTIP			RTOE			RMT1			RMT5			RHEE			
		X1	Y1	Z1	X2	Y2	Z2	X3	Y3	Z3	X4	Y4	Z4	X5	Y5	Z5	X6	Y6	Z6	X7	Y7	Z7	X8	Y8	Z8	X9	Y9	Z9	X10	Y10	Z10	X11	Y11	Z11	X12	Y12	Z12	X13	Y13	Z13	X14	Y14	Z14	X15	Y15	Z15	X16	Y16	Z16	X17	Y17	Z17	X18	Y18	Z18	X19	Y19	Z19	X20	Y20	Z20	X21	Y21	Z21	X22	Y22	Z22	X23	Y23	Z23	X24	Y24	Z24	X25	Y25	Z25	X26	Y26	Z26	X27	Y27	Z27	X28	Y28	Z28	X29	Y29	Z29	X30	Y30	Z30	X31	Y31	Z31	X32	Y32	Z32	X33	Y33	Z33	X34	Y34	Z34	X35	Y35	Z35	X36	Y36	Z36	X37	Y37	Z37	X38	Y38	Z38	X39	Y39	Z39	X40	Y40	Z40	X41	Y41	Z41	X42	Y42	Z42	X43	Y43	Z43	X44	Y44	Z44	X45	Y45	Z45	X46	Y46	Z46	X47	Y47	Z47	X48	Y48	Z48	X49	Y49	Z49	X50	Y50	Z50	X51	Y51	Z51	X52	Y52	Z52	X53	Y53	Z53	

1	0	660.6475219726562	1125.034057617188	-273.1178283691406	661.9959716796875	1124.864990234375	-407.5041809082031	655.3828125	1156.050537109375	-343.0626525878906	864.2463989257812	1361.314575195312	-343.4951782226562	612.6585693359375	1304.025024414062	-346.1845397949219	638.046875	1597.232666015625	-360.2812194824219	824.0396728515625	1494.915893554688	-347.0835876464844	587.2283325195312	1411.20361328125	-273.6518859863281	632.56298828125	1576.952026367188	-461.4721374511719	721.0639038085938	1565.723388671875	-527.3445434570312	705.4482421875	1433.838989257812	-597.9443359375	727.1467895507812	1213.897705078125	-613.7635498046875	655.500244140625	1201.878173828125	-564.6205444335938	826.8214721679688	960.5645751953125	-551.7905883789062	749.7456665039062	931.302490234375	-587.4375610351562	746.521484375	1098.11474609375	-612.8111572265625	837.179443359375	768.1652221679688	-521.9890747070312	779.8134765625	857.6276245117188	-583.5020141601562	845.0368041992188	871.8507690429688	-559.005615234375	688.963134765625	1578.918823242188	-176.9258270263672	671.4360961914062	1504.896606445312	-114.2042846679688	664.1658325195312	1210.281860351562	-96.05876159667969	663.0362548828125	1209.7685546875	-192.72265625	815.6603393554688	972.572021484375	-105.8717193603516	741.0999755859375	952.8702392578125	-77.69673919677734	689.0887451171875	1137.33203125	-80.35286712646484	848.5075073242188	778.4990844726562	-121.3201904296875	848.849365234375	865.5294189453125	-99.45197296142578	781.9848022460938	855.1287841796875	-71.71481323242188	669.8506469726562	1768.282348632812	-275.9532165527344	828.8672485351562	1843.470458984375	-408.2522583007812	828.5360717773438	1846.296142578125	-278.5229187011719	660.46240234375	1768.934204101562	-410.9796752929688	751.9183959960938	1034.587768554688	-512.8662719726562	789.7427978515625	1030.564697265625	-152.5682373046875	867.6888427734375	1104.681640625	-208.3817138671875	861.7059936523438	1102.5302734375	-474.9034729003906	766.9290771484375	533.6558837890625	-479.8130187988281	749.2952270507812	679.104736328125	-508.0233764648438	638.4873657226562	34.61261749267578	-465.9863891601562	656.823486328125	289.05712890625	-502.0945129394531	872.5050048828125	35.67216110229492	-417.1535034179688	792.3448486328125	41.09523010253906	-380.5448913574219	762.1468505859375	31.71757125854492	-496.3421630859375	572.023681640625	36.29936599731445	-402.3524169921875	764.9869995117188	539.0631103515625	-187.5394287109375	804.6350708007812	821.5177612304688	-164.2379455566406	656.2138671875	28.89431381225586	-200.41357421875	736.4034423828125	407.4322509765625	-176.0822906494141	887.2333984375	41.10652542114258	-259.6983947753906	824.1578369140625	29.53506660461426	-300.58447265625	791.5452880859375	38.15715026855469	-183.5799102783203	597.5859375	31.79859352111816	-247.3278503417969	
2	0.01	660.6202392578125	1125.032470703125	-273.1144104003906	661.9495849609375	1124.865356445312	-407.4932250976562	655.3527221679688	1156.052490234375	-343.0533752441406	864.2369995117188	1361.324951171875	-343.4791870117188	612.634521484375	1304.04150390625	-346.1823120117188	638.0315551757812	1597.240356445312	-360.2822265625	824.0315551757812	1494.931030273438	-347.0774841308594	587.2140502929688	1411.212768554688	-273.6451721191406	632.5485229492188	1576.96826171875	-461.4808654785156	721.0810546875	1565.753662109375	-527.34716796875	705.4601440429688	1433.851318359375	-597.9307250976562	727.1786499023438	1213.897216796875	-613.7293701171875	655.5353393554688	1201.905395507812	-564.6226196289062	826.8407592773438	960.5758666992188	-551.7012329101562	749.7797241210938	931.3086547851562	-587.3556518554688	746.5448608398438	1098.119750976562	-612.762451171875	837.1669311523438	768.1454467773438	-521.8350219726562	779.8408813476562	857.6365356445312	-583.4210815429688	845.052978515625	871.8603515625	-558.8837890625	688.945556640625	1578.937622070312	-176.9222106933594	671.4293823242188	1504.91357421875	-114.1932907104492	664.1246948242188	1210.31103515625	-96.01711273193359	663.0062255859375	1209.766845703125	-192.6890563964844	815.559814453125	972.567626953125	-105.8249282836914	741.0086669921875	952.8856811523438	-77.64096069335938	689.0509033203125	1137.353637695312	-80.31027221679688	848.4283447265625	778.5363159179688	-121.2545623779297	848.7525634765625	865.5143432617188	-99.39136505126953	781.8373413085938	855.131103515625	-71.66227722167969	669.87109375	1768.31005859375	-275.9396057128906	828.9375610351562	1843.4189453125	-408.2256164550781	828.598876953125	1846.245849609375	-278.4776916503906	660.4835815429688	1768.958862304688	-410.9653625488281	751.9182739257812	1034.596923828125	-512.8518676757812	789.7134399414062	1030.569946289062	-152.5481109619141	867.6578979492188	1104.684814453125	-208.3657379150391	861.6880493164062	1102.529418945312	-474.8738708496094	766.9384765625	533.6575927734375	-479.8050842285156	749.29541015625	679.1141967773438	-508.0080871582031	638.48828125	34.61488342285156	-465.9864196777344	656.835693359375	289.0667419433594	-502.0953674316406	872.5018310546875	35.66246032714844	-417.1446228027344	792.3401489257812	41.08878326416016	-380.5416564941406	762.1471557617188	31.71350479125977	-496.3421630859375	572.0156860351562	36.30525970458984	-402.349609375	764.983642578125	539.0612182617188	-187.5477447509766	804.6052856445312	821.5399169921875	-164.2101745605469	656.2271728515625	28.90544319152832	-200.4148559570312	736.4034423828125	407.4254760742188	-176.0820617675781	887.236328125	41.10091400146484	-259.6981201171875	824.1607666015625	29.52784156799316	-300.5897827148438	791.5548706054688	38.17012405395508	-183.5898590087891	597.586669921875	31.79692459106445	-247.3361511230469	
3	0.02	660.5838623046875	1125.030151367188	-273.1089477539062	661.892578125	1124.866821289062	-407.4784851074219	655.3086547851562	1156.055297851562	-343.0403137207031	864.22412109375	1361.338623046875	-343.4610900878906	612.6025390625	1304.060913085938	-346.1769714355469	638.0088500976562	1597.250122070312	-360.2847595214844	824.021240234375	1494.950073242188	-347.0730285644531	587.1903686523438	1411.225708007812	-273.6358337402344	632.5265502929688	1576.988159179688	-461.4905700683594	721.0965576171875	1565.791259765625	-527.3493041992188	705.4688720703125	1433.868896484375	-597.9147338867188	727.2153930664062	1213.89990234375	-613.6873779296875	655.5741577148438	1201.93603515625	-564.6232299804688	826.87109375	960.5977172851562	-551.5845336914062	749.8270874023438	931.3211669921875	-587.2542114257812	746.5767822265625	1098.126831054688	-612.6952514648438	837.1611938476562	768.1316528320312	-521.6370239257812	779.886962890625	857.6542358398438	-583.317138671875	845.0756225585938	871.8776245117188	-558.730224609375	688.9236450195312	1578.96142578125	-176.9176635742188	671.424072265625	1504.935424804688	-114.1777725219727	664.0734252929688	1210.348510742188	-95.96633148193359	662.9708251953125	1209.768798828125	-192.6438903808594	815.4342651367188	972.5601806640625	-105.7666091918945	740.8975830078125	952.9060668945312	-77.56277465820312	689.0082397460938	1137.384521484375	-80.25453186035156	848.3137817382812	778.5735473632812	-121.1756210327148	848.6176147460938	865.4931030273438	-99.31650543212891	781.6393432617188	855.1312866210938	-71.60183715820312	669.8984985351562	1768.346435546875	-275.9199523925781	829.0248413085938	1843.3525390625	-408.1954956054688	828.6829223632812	1846.181762695312	-278.4266052246094	660.5074462890625	1768.991577148438	-410.9436645507812	751.9120483398438	1034.60986328125	-512.8335571289062	789.674560546875	1030.576171875	-152.5227355957031	867.6180419921875	1104.688354492188	-208.3445281982422	861.6654663085938	1102.531005859375	-474.837646484375	766.9459838867188	533.6593017578125	-479.7938232421875	749.29345703125	679.1265869140625	-507.9872436523438	638.4892578125	34.61720275878906	-465.9862365722656	656.846435546875	289.0772094726562	-502.094970703125	872.4993286132812	35.65509796142578	-417.1371765136719	792.3356323242188	41.08380126953125	-380.5388488769531	762.1480712890625	31.71014976501465	-496.3420715332031	572.005859375	36.3121223449707	-402.3473205566406	764.9784545898438	539.0581665039062	-187.5563354492188	804.56982421875	821.5726318359375	-164.1761474609375	656.2412109375	28.9158763885498	-200.4177856445312	736.404052734375	407.4177856445312	-176.0799865722656	887.2400512695312	41.09495544433594	-259.6986389160156	824.1633911132812	29.52009391784668	-300.5945434570312	791.5662841796875	38.18582916259766	-183.6005859375	597.5873413085938	31.79528999328613	-247.3465270996094	
4	0.03	660.5390014648438	1125.026977539062	-273.1010437011719	661.825439453125	1124.869384765625	-407.45947265625	655.2493896484375	1156.05908203125	-343.0230102539062	864.2079467773438	1361.355346679688	-343.4423522949219	612.5631103515625	1304.081909179688	-346.167236328125	637.9779663085938	1597.26171875	-360.2895812988281	824.0087280273438	1494.972045898438	-347.0714416503906	587.1566162109375	1411.242065429688	-273.6236572265625	632.4962768554688	1577.010620117188	-461.5003356933594	721.1065673828125	1565.834716796875	-527.3505859375	705.4710083007812	1433.891845703125	-597.8974609375	727.25390625	1213.906982421875	-613.6399536132812	655.6122436523438	1201.967041015625	-564.6209716796875	826.9142456054688	960.6324462890625	-551.4439086914062	749.8877563476562	931.3414916992188	-587.1387939453125	746.616943359375	1098.13623046875	-612.6100463867188	837.1670532226562	768.1299438476562	-521.40380859375	779.95556640625	857.6823120117188	-583.1932373046875	845.105224609375	871.9044189453125	-558.5511474609375	688.8986206054688	1578.989379882812	-176.9125213623047	671.4219970703125	1504.9619140625	-114.1574783325195	664.0138549804688	1210.39306640625	-95.90916442871094	662.9315185546875	1209.776611328125	-192.5874786376953	815.2888793945312	972.5489501953125	-105.6991729736328	740.7732543945312	952.930908203125	-77.46259307861328	688.9638671875	1137.42529296875	-80.18649291992188	848.159912109375	778.6027221679688	-121.0879211425781	848.4434204101562	865.465576171875	-99.23163604736328	781.3935546875	855.12841796875	-71.53771209716797	669.9321899414062	1768.390502929688	-275.8939514160156	829.1246337890625	1843.273803710938	-408.16455078125	828.7867431640625	1846.10595703125	-278.3743286132812	660.5316772460938	1769.031982421875	-410.9138793945312	751.8969116210938	1034.62646484375	-512.8120727539062	789.6266479492188	1030.58251953125	-152.4934844970703	867.5706176757812	1104.692138671875	-208.3187561035156	861.6381225585938	1102.535766601562	-474.7964172363281	766.9497680664062	533.6610107421875	-479.779296875	749.2884521484375	679.1417236328125	-507.9606323242188	638.4898681640625	34.61876678466797	-465.9856567382812	656.8539428710938	289.0870666503906	-502.0925598144531	872.4979248046875	35.65122222900391	-417.1326904296875	792.3317260742188	41.08119201660156	-380.5377197265625	762.1497192382812	31.70850944519043	-496.3421325683594	571.9953002929688	36.3187141418457	-402.3460083007812	764.9708862304688	539.0538940429688	-187.5627288818359	804.5262451171875	821.613037109375	-164.1353149414062	656.2543334960938	28.92435836791992	-200.4225463867188	736.4053344726562	407.4100952148438	-176.074951171875	887.2446899414062	41.08889389038086	-259.6993713378906	824.1654052734375	29.51244163513184	-300.59814453125	791.57861328125	38.20254135131836	-183.6111297607422	597.5875854492188	31.79352760314941	-247.3580780029297	
